<svg width="178" height="178" viewBox="0 0 178 178" fill="none" xmlns="http://www.w3.org/2000/svg">
<path d="M119.076 89C119.076 105.61 105.61 119.076 89 119.076C72.3896 119.076 58.9241 105.61 58.9241 89C58.9241 72.3896 72.3896 58.9241 89 58.9241C105.61 58.9241 119.076 72.3896 119.076 89Z" fill="#51658B"/>
<path fill-rule="evenodd" clip-rule="evenodd" d="M110.483 21.4828C110.483 28.4054 107.208 34.5633 102.124 38.4921C120.392 43.2254 134.775 57.6079 139.508 75.8761C143.437 70.7916 149.595 67.5172 156.517 67.5172C168.382 67.5172 178 77.1354 178 89C178 100.865 168.382 110.483 156.517 110.483C149.595 110.483 143.437 107.208 139.508 102.124C134.775 120.392 120.392 134.775 102.124 139.508C107.208 143.437 110.483 149.595 110.483 156.517C110.483 168.382 100.865 178 89 178C77.1354 178 67.5172 168.382 67.5172 156.517C67.5172 149.595 70.7916 143.437 75.8761 139.508C57.6079 134.775 43.2254 120.392 38.4921 102.124C34.5633 107.208 28.4054 110.483 21.4828 110.483C9.61816 110.483 0 100.865 0 89C0 77.1354 9.61816 67.5172 21.4828 67.5172C28.4054 67.5172 34.5633 70.7916 38.4921 75.8761C43.2254 57.6079 57.6079 43.2254 75.8761 38.4921C70.7916 34.5633 67.5172 28.4054 67.5172 21.4828C67.5172 9.61816 77.1354 0 89 0C100.865 0 110.483 9.61816 110.483 21.4828ZM89 49.1034C66.9657 49.1034 49.1034 66.9657 49.1034 89C49.1034 111.034 66.9657 128.897 89 128.897C111.034 128.897 128.897 111.034 128.897 89C128.897 66.9657 111.034 49.1034 89 49.1034Z" fill="#51658B"/>
<path d="M113.518 22.7883C113.406 24.9195 113.023 26.9787 112.401 28.9319C129.172 35.47 142.53 48.8285 149.068 65.5988C151.021 64.9776 153.081 64.5941 155.212 64.4825C148.077 45.2217 132.778 29.923 113.518 22.7883Z" fill="#51658B"/>
<path d="M112.401 149.068C129.172 142.53 142.53 129.172 149.068 112.401C151.021 113.023 153.081 113.406 155.212 113.518C148.077 132.778 132.778 148.077 113.518 155.212C113.406 153.081 113.023 151.022 112.401 149.068Z" fill="#51658B"/>
<path d="M28.9319 112.401C35.47 129.172 48.8285 142.53 65.5988 149.068C64.9776 151.022 64.5941 153.081 64.4825 155.212C45.2217 148.077 29.923 132.778 22.7883 113.518C24.9195 113.406 26.9787 113.023 28.9319 112.401Z" fill="#51658B"/>
<path d="M28.9319 65.5988C35.47 48.8285 48.8285 35.47 65.5988 28.9319C64.9776 26.9787 64.5941 24.9195 64.4825 22.7883C45.2217 29.923 29.923 45.2217 22.7883 64.4825C24.9195 64.5941 26.9787 64.9776 28.9319 65.5988Z" fill="#51658B"/>
</svg>
